<svg xmlns="http://www.w3.org/2000/svg" width="59.723" height="59.716" viewBox="0 0 59.723 59.716">
  <path id="Path_68" data-name="Path 68" d="M55.084,50.952a6.776,6.776,0,1,0-7.75,0,11.128,11.128,0,0,0-5.472,4.385,11.273,11.273,0,0,0-5.478-4.385,6.782,6.782,0,1,0-7.744,0,11.273,11.273,0,0,0-5.478,4.379,11.128,11.128,0,0,0-5.472-4.379,6.782,6.782,0,1,0-7.75,0A11.194,11.194,0,0,0,2.65,61.415a.961.961,0,0,0,.961.961h57.8a.961.961,0,0,0,.961-.961,11.194,11.194,0,0,0-7.289-10.463ZM46.339,45.4A4.859,4.859,0,1,1,51.2,50.254h0A4.859,4.859,0,0,1,46.339,45.4Zm-18.7,0a4.853,4.853,0,1,1,4.873,4.853h0A4.859,4.859,0,0,1,27.659,45.4Zm-18.707,0a4.859,4.859,0,1,1,4.859,4.853h0A4.859,4.859,0,0,1,8.952,45.4Zm4.853,6.782h0a9.219,9.219,0,0,1,8.3,5.208,11,11,0,0,0-.711,3.055H4.625A9.219,9.219,0,0,1,13.8,52.183Zm9.548,8.264a9.219,9.219,0,0,1,9.179-8.264h0a9.219,9.219,0,0,1,9.179,8.264Zm20.287,0a11,11,0,0,0-.711-3.055,9.219,9.219,0,0,1,8.3-5.208h0A9.219,9.219,0,0,1,60.4,60.447ZM16.82,23.724l3.865.579c.079.2.165.408.25.606L18.6,28.057a1.653,1.653,0,0,0,.165,2.16l3.292,3.292a1.653,1.653,0,0,0,2.153.158l3.134-2.324q.3.138.612.257l.6,3.852a1.646,1.646,0,0,0,1.633,1.409h4.662a1.64,1.64,0,0,0,1.607-1.4l.579-3.865q.309-.119.612-.257l3.134,2.324a1.646,1.646,0,0,0,2.153-.165L46.234,30.2a1.653,1.653,0,0,0,.165-2.16L44.068,24.9c.086-.191.165-.388.244-.586l3.885-.6a1.646,1.646,0,0,0,1.435-1.626V17.429a1.646,1.646,0,0,0-1.4-1.633L44.344,15.2q-.105-.283-.237-.573l2.311-3.187A1.64,1.64,0,0,0,46.254,9.3L42.961,6.005a1.646,1.646,0,0,0-2.147-.158L37.641,8.171c-.184-.086-.369-.158-.56-.237l-.619-3.865A1.653,1.653,0,0,0,34.829,2.66H30.187a1.646,1.646,0,0,0-1.626,1.4l-.6,3.892c-.184.079-.375.151-.56.237L24.215,5.86a1.646,1.646,0,0,0-2.147.158L18.776,9.311a1.64,1.64,0,0,0-.171,2.133l2.331,3.174c-.086.191-.171.388-.244.586l-3.878.579a1.646,1.646,0,0,0-1.422,1.653v4.655a1.646,1.646,0,0,0,1.429,1.633Zm5.307-6.776.191-.56a10.457,10.457,0,0,1,.593-1.435l.263-.527L20.3,10.476l3-2.924,3.918,2.871.527-.263a11.984,11.984,0,0,1,1.409-.586l.56-.184.737-4.807h4.188l.737,4.8.56.184a11.984,11.984,0,0,1,1.409.586l.527.263L41.73,7.552l2.97,2.957L41.822,14.46l.263.533a10.1,10.1,0,0,1,.586,1.409l.191.56,4.794.7v4.188l-4.807.737-.184.56a10.963,10.963,0,0,1-.593,1.435l-.27.527,2.884,3.9-2.963,2.95-3.852-2.878-.527.27a10.851,10.851,0,0,1-1.462.606l-.56.184-.718,4.794H30.418l-.711-4.787-.566-.184a10.43,10.43,0,0,1-1.455-.606l-.533-.27-3.859,2.871-2.963-2.95,2.884-3.9-.27-.527a11.26,11.26,0,0,1-.6-1.455l-.184-.56-4.794-.718V17.666ZM32.511,28.854a9.093,9.093,0,1,0-9.087-9.091,9.093,9.093,0,0,0,9.087,9.091Zm0-16.258a7.164,7.164,0,1,1-7.164,7.164A7.164,7.164,0,0,1,32.511,12.6Zm-3.793,8.066a.961.961,0,0,1,1.363-1.356l1.4,1.4L34.9,16.791a.961.961,0,0,1,1.455,1.238l-4.1,4.695a.975.975,0,0,1-.658.329h-.033a.961.961,0,0,1-.658-.283Z" transform="translate(-2.65 -2.66)" fill="#00558e"/>
</svg>
