<svg xmlns="http://www.w3.org/2000/svg" width="59.723" height="66.816" viewBox="0 0 59.723 66.816">
  <path id="Path_55" data-name="Path 55" d="M49.391,47.242l-.547,4.278,4.1-1.346q-.189-.207-.39-.412a16.761,16.761,0,0,0-2.682-2.213c-.16-.105-.321-.208-.481-.306ZM19.879,12.1a.765.765,0,0,1,1.53,0v.371a2.926,2.926,0,0,1,1.268.713,2.747,2.747,0,0,1,.859,1.991.765.765,0,0,1-1.53,0,1.235,1.235,0,0,0-.387-.891,1.437,1.437,0,0,0-1.95,0,1.22,1.22,0,0,0,0,1.782,1.4,1.4,0,0,0,.975.382,2.934,2.934,0,0,1,2.033.812,2.737,2.737,0,0,1,0,3.982,2.924,2.924,0,0,1-1.268.712v.371a.765.765,0,1,1-1.53,0v-.371a2.924,2.924,0,0,1-1.268-.712,2.747,2.747,0,0,1-.859-1.993.765.765,0,1,1,1.53,0,1.231,1.231,0,0,0,.387.891,1.437,1.437,0,0,0,1.95,0,1.221,1.221,0,0,0,0-1.782,1.4,1.4,0,0,0-.976-.382,2.932,2.932,0,0,1-2.033-.812,2.737,2.737,0,0,1,0-3.982,2.926,2.926,0,0,1,1.268-.713V12.1ZM50.206,33.086a.762.762,0,1,1,0,1.524l-20.957-.016a.762.762,0,0,1,0-1.524ZM29.249,29.134a.762.762,0,0,1,0-1.524l20.957.016a.762.762,0,1,1,0,1.524Zm-3.438-1.471.148-.126a.762.762,0,1,1,.98,1.166l-1.13.952v5.413a.765.765,0,0,1-.765.765H17.122a.766.766,0,0,1-.765-.765V27.14a.766.766,0,0,1,.765-.765h7.925a.765.765,0,0,1,.765.765v.52Zm-7.053,3.362a.762.762,0,0,1,.95-1.188l1.808,1.443,2.764-2.328V27.9H17.886V34.3h6.395V30.943l-2.261,1.9a.762.762,0,0,1-.965.013l-2.293-1.834Zm38.733,5.661a.794.794,0,0,1-.084.1l-7.442,9.019q.371.223.749.47.462.307.928.66l9.483-11.489c-.264-.2-.531-.387-.8-.564q-.445-.3-.891-.548l-1.94,2.35ZM56.1,15.547V35.982L48.242,45.5a.784.784,0,0,0-.088.109h0l0,.006h0l0,0v.01h0v.01l-.006.01h0v.005h0l0,.008h0v.025a.764.764,0,0,0-.085.278l-.869,6.562a.762.762,0,0,0,.661.852.771.771,0,0,0,.331-.031h0l6.293-2.068A.762.762,0,0,0,54.847,51L56.1,49.486V65H11.307V6.53H47.082v8.252a.766.766,0,0,0,.765.765ZM48.612,7.612v6.4h6.405L52.6,11.6l-.011-.012Zm-32.2,58.917H56.862a.766.766,0,0,0,.765-.765V47.634L61.2,43.3V70.286H16.415V66.529ZM61.342,40.742,56.318,46.83a.786.786,0,0,0-.084.1l-1.99,2.411q-.287-.326-.6-.647-.388-.4-.823-.785L62.3,36.418q.367.333.707.678.376.385.707.771l-2.29,2.774a.794.794,0,0,0-.084.1ZM62.4,34.5q-.614-.487-1.226-.891c-.251-.167-.5-.323-.748-.47l.727-.88c.286.163.572.339.857.528A16.761,16.761,0,0,1,64.686,35c.261.266.506.534.733.8l-.719.872q-.288-.327-.6-.648a18.207,18.207,0,0,0-1.4-1.283c-.065-.054-.13-.107-.195-.159a.751.751,0,0,0-.1-.083Zm-1.188-4.708V11.817H54.981l2.424,2.424a.762.762,0,0,1,.223.541V34.128L61.206,29.8Zm1.395.7a.687.687,0,0,1-.084.1l-.385.466q.356.21.714.445a18.547,18.547,0,0,1,2.923,2.419q.33.336.63.678l.914-1.1a.785.785,0,0,1,.078-.1,2.557,2.557,0,0,0,.581-1.468,1.262,1.262,0,0,0-.35-1,.8.8,0,0,1-.086-.074l-2-1.656a1.241,1.241,0,0,0-1.082-.186,2.57,2.57,0,0,0-1.37.891L62.6,30.5ZM53.451,10.287h8.52a.765.765,0,0,1,.765.765v17.12a3.869,3.869,0,0,1,1.372-.63,2.728,2.728,0,0,1,2.391.5l2.057,1.7.055.048h0v0a2.742,2.742,0,0,1,.882,2.2,4.117,4.117,0,0,1-.965,2.435l-5.8,7.023v29.6a.765.765,0,0,1-.759.765H15.646a.765.765,0,0,1-.765-.765V66.529H10.542a.766.766,0,0,1-.765-.765v-60A.765.765,0,0,1,10.542,5H47.848a.764.764,0,0,1,.548.231l5.056,5.056ZM44.573,44.671l-15.324-.016a.762.762,0,0,0,0,1.524l15.324.016a.762.762,0,1,0,0-1.524ZM29.249,40.718a.762.762,0,0,1,0-1.524l20.957.016a.762.762,0,1,1,0,1.524Zm-3.438-1.471v-.52a.765.765,0,0,0-.765-.765H17.122a.765.765,0,0,0-.765.765v7.921a.766.766,0,0,0,.765.765h7.925a.765.765,0,0,0,.765-.765v-5.41l1.132-.952a.762.762,0,1,0-.98-1.166l-.148.126ZM18.759,42.61a.761.761,0,1,1,.95-1.188l1.808,1.44,2.764-2.328V39.487H17.886v6.4h6.395V42.527l-2.261,1.9a.762.762,0,0,1-.965.012L18.761,42.61ZM50.206,56.324l-20.957-.016a.762.762,0,0,0,0,1.524l20.957.016a.762.762,0,1,0,0-1.524ZM29.249,52.372l15.324.016a.762.762,0,1,0,0-1.524l-15.324-.016a.762.762,0,0,0,0,1.524ZM25.811,50.9v-.52a.765.765,0,0,0-.765-.765H17.122a.766.766,0,0,0-.765.765V58.3a.766.766,0,0,0,.765.765h7.925a.765.765,0,0,0,.765-.765V52.892l1.132-.952a.762.762,0,1,0-.98-1.166l-.148.126Zm-7.053,3.362a.762.762,0,0,1,.95-1.188l1.808,1.442,2.764-2.328V51.142H17.886v6.395h6.395V54.181l-2.261,1.9a.762.762,0,0,1-.965.013l-2.293-1.834Zm10.376-33.31H47.848a.765.765,0,0,0,0-1.53H29.134a.765.765,0,1,0,0,1.53Zm0-5.111H40.543a.765.765,0,0,0,0-1.531H29.134a.765.765,0,0,0,0,1.531Z" transform="translate(-9.777 -5)" fill="#00558e" fill-rule="evenodd"/>
</svg>
