<svg xmlns="http://www.w3.org/2000/svg" width="74.502" height="75.816" viewBox="0 0 74.502 75.816">
  <path id="Path_54" data-name="Path 54" d="M16.245,32.056V27.565a1.074,1.074,0,1,1,2.148,0v3.416H21a1.075,1.075,0,1,1,0,2.149H17.324a1.079,1.079,0,0,1-1.079-1.074ZM44.309,5.932h-.785a12.393,12.393,0,1,0,.785,0ZM8.887,33.13a8.521,8.521,0,0,0,7.358,7.364v-.867a1.074,1.074,0,1,1,2.148,0v.867A8.521,8.521,0,0,0,25.76,33.13H24.9a1.075,1.075,0,1,1,0-2.149h.865a8.522,8.522,0,0,0-7.368-7.364v.867a1.074,1.074,0,1,1-2.148,0v-.867a8.521,8.521,0,0,0-7.358,7.364h.865a1.075,1.075,0,0,1,0,2.149Zm19.089-1.074A10.658,10.658,0,1,0,17.324,42.712,10.669,10.669,0,0,0,27.976,32.056Zm43.408-.616a1.071,1.071,0,0,1-.039,1.287L69.48,35.064A1.076,1.076,0,1,1,67.8,33.722l1.37-1.71L66.36,28a1.07,1.07,0,1,1,1.75-1.231l3.276,4.674Zm.194,9.054a8.531,8.531,0,0,0,7.368-7.364h-.865a1.075,1.075,0,1,1,0-2.149h.865a8.532,8.532,0,0,0-7.368-7.364v.867a1.074,1.074,0,1,1-2.148,0v-.867a8.541,8.541,0,0,0-7.368,7.364h.875a1.075,1.075,0,0,1,0,2.149h-.875a8.54,8.54,0,0,0,7.368,7.364v-.867a1.074,1.074,0,1,1,2.148,0v.867ZM70.51,21.4A10.657,10.657,0,1,0,81.163,32.056,10.672,10.672,0,0,0,70.51,21.4ZM48.952,47.711a5.04,5.04,0,1,1-5.035-5.039,5.046,5.046,0,0,1,5.035,5.039Zm-12.227,0a7.188,7.188,0,1,0,7.193-7.187,7.2,7.2,0,0,0-7.193,7.187Zm26.224,1.7A2.023,2.023,0,0,0,59.9,46.76L50.157,57.948a8.273,8.273,0,0,1-12.48,0L27.938,46.76a2.023,2.023,0,1,0-3.052,2.656L34.265,60.8a7.962,7.962,0,0,1,1.866,4.5H36.3a2.666,2.666,0,0,1,2.663,2.661v11.12a2.96,2.96,0,0,1-.049.513H50.419a1.252,1.252,0,0,0,1.254-1.246V66.066A7.951,7.951,0,0,1,53.559,60.8l9.389-11.388ZM18.373,79.6a.519.519,0,0,1-.515-.513v-9.34l8.4,4.428v.41a1.074,1.074,0,0,0,2.148,0v-.41l8.408-4.428v9.34a.519.519,0,0,1-.515.513H18.373ZM36.3,67.453l.185.037L28.4,71.748a1.076,1.076,0,0,0-2.138,0L18.189,67.49l.185-.037ZM25.391,63.792a.717.717,0,0,1,.117-.424h3.655a.8.8,0,0,1,.117.424V65.3H25.391V63.792Zm38.772-18.85a4.161,4.161,0,0,1,.408,5.874l-9.35,11.355a5.787,5.787,0,0,0-1.4,3.9V78.353a3.4,3.4,0,0,1-3.4,3.4H37.4a3.477,3.477,0,0,1-.583-.053,2.6,2.6,0,0,1-.525.053H18.373a2.666,2.666,0,0,1-2.663-2.662V67.965A2.666,2.666,0,0,1,18.373,65.3h4.87V63.792A2.377,2.377,0,0,1,25.42,61.22h3.82a2.378,2.378,0,0,1,2.187,2.572V65.3h2.537a5.75,5.75,0,0,0-1.351-3.135l-9.36-11.355a4.17,4.17,0,0,1,6.3-5.465L39.29,56.537a6.127,6.127,0,0,0,9.243,0l9.739-11.187a4.182,4.182,0,0,1,5.89-.408ZM43.071,18.988a1.087,1.087,0,0,1-.039-1.288L46.9,12.18a1.074,1.074,0,1,1,1.759,1.232l-3.4,4.861,1.7,2.132a1.077,1.077,0,0,1-.836,1.746,1.059,1.059,0,0,1-.836-.4l-2.216-2.759ZM42.838,8.131V9.4a1.074,1.074,0,0,0,2.148,0V8.131A10.27,10.27,0,0,1,54.1,17.242H52.83a1.074,1.074,0,1,0,0,2.148H54.1A10.269,10.269,0,0,1,44.986,28.5V27.232a1.074,1.074,0,1,0-2.148,0V28.5a10.25,10.25,0,0,1-9.107-9.111h1.264a1.074,1.074,0,1,0,0-2.148H33.731A10.252,10.252,0,0,1,42.838,8.131Z" transform="translate(-6.661 -5.932)" fill="#00558e" fill-rule="evenodd"/>
</svg>
